 http://www.shotpix.com/images/54701082172672351863.jpg



ooooo ooo ooooo ooo o8o .oooooo. ooooo ooo oooooooooooo
`888' `8' `888b. `8' `"' d8P' `Y8b `888' `8' `888' `8
888 8 8 `88b. 8 oooo 888 888 888 8 888
888 8 8 `88b. 8 `888 888 888 888 8 888oooo8
888 8 8 `88b.8 888 888 888 888 8 888 "
`88. .8' 8 `888 888 `88b d88b `88. .8' 888 o
`YbodP' o8o `8 o888o `Y8bood8P'Ybd' `YbodP' o888ooooood8




.........why be the same as everyone else when YOU can be UNiQUE.........







Format : AVI
Format/Info : Audio Video Interleave
File size : 1.40 GiB
Duration : 1h 47mn
Overall bit rate : 1 853 Kbps
Writing application : VirtualDubMod 1.5.10.3 | www.virtualdub-fr.org || (build 2550/release)
Writing library : VirtualDubMod build 2550/release

Video
ID : 0
Format : MPEG-4 Visual
Format profile : Advanced Simple@L5
Format settings, BVOP : 2
Format settings, QPel : No
Format settings, GMC : No warppoints
Format settings, Matrix : Default (H.263)
Muxing mode : Packed bitstream
Codec ID : XVID
Codec ID/Hint : XviD
Duration : 1h 47mn
Bit rate : 1 715 Kbps
Width : 720 pixels
Height : 304 pixels
Display aspect ratio : 2.35:1
Frame rate : 23.976 fps
Color space : YUV
Chroma subsampling : 4:2:0
Bit depth : 8 bits
Scan type : Progressive
Compression mode : Lossy
Bits/(Pixel*Frame) : 0.327
Stream size : 1.29 GiB (93%)
Writing library : XviD 64

Audio
ID : 1
Format : AC-3
Format/Info : Audio Coding 3
Mode extension : CM (complete main)
Codec ID : 2000
Duration : 1h 47mn
Bit rate mode : Constant
Bit rate : 128 Kbps
Channel(s) : 2 channels
Channel positions : Front: L R
Sampling rate : 48.0 KHz
Bit depth : 16 bits
Compression mode : Lossy
Stream size : 98.7 MiB (7%)
Alignment : Split accross interleaves
Interleave, duration : 42 ms (1.00 video frame)
Interleave, preload duration : 500 ms











Source Used ...............JYK 720p.............................Thanks


 
http://www.shotpix.com/images/52025342477979556345.png 
http://www.shotpix.com/images/47643100271748166565.png 
http://www.shotpix.com/images/13190459985079179708.png